<?xml version="1.0" standalone="no"?>
<!DOCTYPE svg PUBLIC "-//W3C//DTD SVG 20010904//EN"
 "http://www.w3.org/TR/2001/REC-SVG-20010904/DTD/svg10.dtd">
<svg version="1.0" xmlns="http://www.w3.org/2000/svg"
 width="700.000000pt" height="700.000000pt" viewBox="0 0 700.000000 700.000000"
 preserveAspectRatio="xMidYMid meet">
<metadata>
Created by potrace 1.14, written by Peter Selinger 2001-2017
</metadata>
<g transform="translate(0.000000,700.000000) scale(0.100000,-0.100000)"
fill="#000000" stroke="none">
<path d="M1105 6410 c-87 -19 -163 -82 -204 -169 l-25 -56 -1 -2670 c-1 -2912
-5 -2726 55 -2808 16 -21 46 -51 67 -67 83 -61 -83 -57 2523 -55 l2385 1 47
22 c62 30 116 85 147 152 l26 55 -1 2690 0 2690 -27 52 c-33 64 -84 114 -145
145 l-47 23 -2385 1 c-1312 0 -2398 -2 -2415 -6z m4431 -583 c7 -7 6 -4648 -1
-4655 -7 -7 -4064 -7 -4071 0 -6 7 -7 4645 0 4656 5 8 4064 8 4072 -1z"/>
<path d="M2043 4668 l2 -583 1455 0 1455 0 1 583 2 582 -1458 0 -1459 0 2
-582z"/>
<path d="M2042 3210 c0 -159 2 -290 6 -291 4 -1 132 -2 285 -3 177 0 281 3
285 9 4 6 7 137 7 293 l0 282 -291 0 -292 0 0 -290z"/>
<path d="M3210 3211 c0 -222 3 -290 13 -293 6 -2 136 -3 287 -3 l275 1 3 292
2 292 -290 0 -290 0 0 -289z"/>
<path d="M4375 2625 l0 -875 291 0 292 0 0 875 0 875 -292 0 -291 0 0 -875z"/>
<path d="M2057 2332 c-14 -3 -16 -34 -16 -293 l0 -289 292 0 292 0 0 290 c1
254 -1 290 -15 291 -45 3 -539 4 -553 1z"/>
<path d="M3214 2331 c-2 -2 -4 -134 -4 -293 l0 -288 290 0 290 0 0 293 0 292
-286 0 c-157 0 -288 -2 -290 -4z"/>
</g>
</svg>
